<svg xmlns="http://www.w3.org/2000/svg" width="16.842" height="20.234" viewBox="0 0 16.842 20.234">
  <g id="Play" transform="translate(1 1)">
    <g id="Stroke_159" data-name="Stroke 159" transform="translate(0 0)" fill="none" stroke-linecap="round" stroke-linejoin="round" stroke-miterlimit="10">
      <path d="M14.54,8.572.982.1A.642.642,0,0,0,0,.643V17.591a.642.642,0,0,0,.982.545L14.54,9.662A.642.642,0,0,0,14.54,8.572Z" stroke="none"/>
      <path d="M 0.6434469223022461 -1.9073486328125e-06 C 0.30889892578125 -1.9073486328125e-05 -3.814697265625e-06 0.2668094635009766 -3.814697265625e-06 0.6430320739746094 L -3.814697265625e-06 17.5905704498291 C -3.814697265625e-06 17.96710777282715 0.3089971542358398 18.23381614685059 0.6435766220092773 18.23381614685059 C 0.7572555541992188 18.23381614685059 0.8738727569580078 18.20303535461426 0.9823455810546875 18.13531112670898 L 14.54030609130859 9.661540985107422 C 14.94259548187256 9.410060882568359 14.94259548187256 8.823921203613281 14.54030609130859 8.572451591491699 L 0.9823455810546875 0.09867095947265625 C 0.8738470077514648 0.03083419799804688 0.7571516036987305 3.814697265625e-06 0.6434469223022461 -1.9073486328125e-06 M 0.6434059143066406 -0.9999980926513672 C 0.9495954513549805 -0.9999980926513672 1.250115394592285 -0.9132881164550781 1.512495994567871 -0.7492294311523438 L 15.07030582427979 7.724451065063477 C 15.55354595184326 8.026521682739258 15.84201622009277 8.547080993652344 15.84202575683594 9.116981506347656 C 15.84202575683594 9.686881065368652 15.55356597900391 10.20744132995605 15.07037544250488 10.50949096679688 L 1.512346267700195 18.98331069946289 C 1.249695777893066 19.14728164672852 0.9494256973266602 19.23382186889648 0.6435756683349609 19.23382186889648 C -0.2626943588256836 19.23382186889648 -1.000003814697266 18.49666213989258 -1.000003814697266 17.5905704498291 L -1.000003814697266 0.6430320739746094 C -1.000003814697266 -0.262939453125 -0.2627744674682617 -0.9999980926513672 0.6434059143066406 -0.9999980926513672 Z" stroke="none" fill="#36aaff"/>
    </g>
  </g>
</svg>
