<svg xmlns="http://www.w3.org/2000/svg" width="254.402" height="90.518" viewBox="0 0 254.402 90.518">
  <path id="Path_9" data-name="Path 9" d="M678.368,441.071v49.984c0,.1,0,.191-.007.286.017,1.027-.01,2.065-.087,3.112a34.078,34.078,0,0,1-31.282,31.315,33.627,33.627,0,0,1-17.4-3.329,5.719,5.719,0,0,1-1.948-8.665h0a5.706,5.706,0,0,1,6.994-1.611,22.173,22.173,0,0,0,11.875,2.161,22.53,22.53,0,1,0-24.625-22.638l-.034,0c0,.07,0,.139,0,.209a33.772,33.772,0,0,1-5.716,18.829h0A33.961,33.961,0,0,1,554,494.513q-.107-1.426-.1-2.828h-.009c0-.065-.02-.125-.021-.189h.033a34.011,34.011,0,0,1,33.971-33.58,33.485,33.485,0,0,1,16.9,4.563,5.492,5.492,0,0,1,1.575,8.139l-.281.358a5.53,5.53,0,0,1-7.124,1.316,22.311,22.311,0,0,0-12.472-2.889,22.531,22.531,0,1,0,23.93,22.488c0-.013,0-.025,0-.038h.015a33.768,33.768,0,0,1,5.717-18.792h0a33.924,33.924,0,0,1,50.789-6.578V441.071a5.722,5.722,0,0,1,5.722-5.722h0A5.722,5.722,0,0,1,678.368,441.071Zm-67.95,50.835v-.014h0Zm-60.66,21.009a5.779,5.779,0,0,0-7.436-1.38,22.061,22.061,0,0,1-10.939,2.888,22.558,22.558,0,0,1-22.531-22.531c0-.135.037-.26.04-.4h-.062c.011-.146.022-.292.022-.441V444.735a5.852,5.852,0,0,0-5.341-5.906,5.723,5.723,0,0,0-6.1,5.71v46.517c0,.149.011.3.022.441h0c0,.133-.02.262-.02.4a34.012,34.012,0,0,0,33.975,33.975,33.568,33.568,0,0,0,16.73-4.448,5.726,5.726,0,0,0,1.644-8.5Zm202.053-22.026a33.958,33.958,0,1,0-67.834,2.436H683.9a34.116,34.116,0,0,0,17.084,27.134v-.05a33.745,33.745,0,0,0,33.47.019,5.706,5.706,0,0,0,1.64-8.475h0a5.753,5.753,0,0,0-7.375-1.394,22.456,22.456,0,0,1-28.894-6.08,22.528,22.528,0,0,1,33.966-29.43,22.316,22.316,0,0,1,5.813,10.107l-19.34-.052a5.722,5.722,0,0,0-5.722,5.722h0a5.722,5.722,0,0,0,5.722,5.722l25.8.07a5.722,5.722,0,0,0,5.722-5.722h0v-.006Z" transform="translate(-497.409 -435.349)" fill="#314452"/>
</svg>